Coordinates
version=1
nRows=23
nColumns=38
inDegrees=no

Units are S.I. units (second, meters, Newtons, ...)
If the header above contains a line with 'inDegrees', this indicates whether rotational values are in degrees (yes) or radians (no).

endheader
time	pelvis_tilt	pelvis_list	pelvis_rotation	pelvis_tx	pelvis_ty	pelvis_tz	hip_flexion_r	hip_adduction_r	hip_rotation_r	knee_angle_r	ankle_angle_r	subtalar_angle_r	mtp_angle_r	hip_flexion_l	hip_adduction_l	hip_rotation_l	knee_angle_l	ankle_angle_l	subtalar_angle_l	mtp_angle_l	lumbar_extension	lumbar_bending	lumbar_rotation	arm_flex_r	arm_add_r	arm_rot_r	elbow_flex_r	pro_sup_r	wrist_flex_r	wrist_dev_r	arm_flex_l	arm_add_l	arm_rot_l	elbow_flex_l	pro_sup_l	wrist_flex_l	wrist_dev_l
1.7	3.14047	1.0184	1.53571	0.591678	-0.212286	1.01723	0.986345	-0.0396714	-0.0452842	0.71347	-0.137202	0	0	0.465108	-0.0230591	-0.147857	0.226961	-0.117924	0	0	0.605425	-0.018086	-0.0867965	-0.235481	-0.24443	0.58491	0.303037	1.25123	0	0	-0.378746	-0.0950343	-0.660783	0.53705	1.05716	0	0
1.71	-3.13648	1.01324	1.53645	0.591064	-0.223887	1.01591	0.985778	-0.0389468	-0.0536963	0.638088	-0.147206	0	0	0.45332	-0.0244629	-0.152392	0.217955	-0.115966	0	0	0.610007	-0.0161539	-0.091673	-0.243242	-0.242	0.5947	0.290909	1.23828	0	0	-0.378042	-0.0948496	-0.656172	0.539712	1.05511	0	0
1.72	-3.13147	1.00758	1.53859	0.59047	-0.235506	1.01428	0.984346	-0.0384503	-0.0619506	0.560124	-0.160041	0	0	0.442315	-0.0252725	-0.155636	0.208631	-0.111879	0	0	0.614838	-0.0150203	-0.0963018	-0.251299	-0.240023	0.603906	0.280407	1.2256	0	0	-0.377974	-0.094482	-0.65157	0.544251	1.05206	0	0
1.73	-3.12649	1.00224	1.54113	0.589847	-0.247158	1.01235	0.981435	-0.0378123	-0.069675	0.480326	-0.175601	0	0	0.431576	-0.0265631	-0.155667	0.199493	-0.109406	0	0	0.618546	-0.0142077	-0.101602	-0.258989	-0.238685	0.613034	0.271714	1.21399	0	0	-0.378515	-0.0937138	-0.647626	0.551014	1.04691	0	0
1.74	-3.12167	0.997818	1.54449	0.589211	-0.258899	1.01019	0.976521	-0.0373219	-0.0768855	0.400218	-0.192603	0	0	0.421942	-0.0277968	-0.155825	0.200384	-0.106215	0	0	0.620578	-0.0140209	-0.108261	-0.265798	-0.237847	0.622134	0.264294	1.20379	0	0	-0.380255	-0.0927836	-0.643409	0.560165	1.04122	0	0
1.75	-3.11888	0.993651	1.55091	0.588617	-0.270739	1.00782	0.970856	-0.0384284	-0.0838664	0.32167	-0.210395	0	0	0.412767	-0.0274581	-0.155729	0.196033	-0.102825	0	0	0.622208	-0.01588	-0.115368	-0.272366	-0.237023	0.631135	0.257538	1.19516	0	0	-0.382933	-0.0925665	-0.638134	0.570628	1.03586	0	0
1.76	-3.11754	0.989622	1.55966	0.588041	-0.282658	1.00523	0.965095	-0.0410375	-0.090497	0.246818	-0.225295	0	0	0.40225	-0.0255104	-0.153554	0.187312	-0.104121	0	0	0.623649	-0.0193818	-0.122641	-0.278969	-0.236065	0.638209	0.251582	1.1878	0	0	-0.385998	-0.0930264	-0.632795	0.58183	1.03109	0	0
1.77	-3.11639	0.986189	1.56899	0.587402	-0.294684	1.00247	0.959098	-0.0441393	-0.0964937	0.177246	-0.236885	0	0	0.393032	-0.0238099	-0.150162	0.186898	-0.102359	0	0	0.624263	-0.0235253	-0.130459	-0.2851	-0.235166	0.643644	0.246387	1.1811	0	0	-0.389562	-0.0933553	-0.628818	0.59435	1.02509	0	0
1.78	-3.11535	0.983081	1.57873	0.586719	-0.306844	0.999624	0.953599	-0.0476971	-0.101892	0.114436	-0.243029	0	0	0.384845	-0.0221079	-0.145395	0.18886	-0.0980338	0	0	0.624651	-0.0278309	-0.138529	-0.29116	-0.234424	0.646956	0.241748	1.17557	0	0	-0.392978	-0.0936704	-0.625822	0.606236	1.01929	0	0
1.79	-3.11368	0.979764	1.58861	0.586032	-0.319069	0.996702	0.949139	-0.0516777	-0.107041	0.0582931	-0.248353	0	0	0.378025	-0.0209286	-0.13952	0.192581	-0.091877	0	0	0.625083	-0.0320498	-0.147838	-0.296584	-0.234025	0.649548	0.237359	1.1696	0	0	-0.396773	-0.0941113	-0.622434	0.617715	1.01315	0	0
1.8	-3.11821	0.966855	1.61103	0.585477	-0.331057	0.993946	0.955327	-0.0639915	-0.111786	0.0123369	-0.256911	0	0	0.410802	-0.0161119	-0.125687	0.220802	-0.0861181	0	0	0.638875	-0.044694	-0.160319	-0.303858	-0.230987	0.654048	0.229239	1.15958	0	0	-0.401918	-0.0981356	-0.615381	0.62293	1.00381	0	0
1.81	-3.10844	0.968247	1.60625	0.584244	-0.343651	0.99059	0.950503	-0.058761	-0.114672	0	-0.255875	0	0	0.374864	-0.0210101	-0.123653	0.211591	-0.0814122	0	0	0.632893	-0.0388602	-0.165692	-0.308132	-0.234046	0.654342	0.228592	1.15399	0	0	-0.405694	-0.0963413	-0.61263	0.638627	0.999618	0	0
1.82	-3.10443	0.967931	1.61067	0.583076	-0.35626	0.98814	0.949487	-0.0595544	-0.117832	0	-0.251958	0	0	0.368255	-0.0235776	-0.116663	0.220729	-0.0777328	0	0	0.630327	-0.0382406	-0.17162	-0.312555	-0.234904	0.652771	0.225489	1.14457	0	0	-0.406553	-0.0972614	-0.608032	0.645877	0.994089	0	0
1.83	-3.10051	0.966238	1.6141	0.581839	-0.369042	0.985834	0.952434	-0.0601275	-0.11737	0	-0.247059	0	0	0.3641	-0.0263123	-0.108619	0.232283	-0.0743879	0	0	0.63059	-0.0365065	-0.175476	-0.317827	-0.235829	0.649759	0.221895	1.13356	0	0	-0.406405	-0.0983061	-0.602775	0.649738	0.988201	0	0
1.84	-3.09629	0.96512	1.61465	0.580386	-0.382142	0.98381	0.956698	-0.0585083	-0.113436	0	-0.243093	0	0	0.358579	-0.0306246	-0.101352	0.245517	-0.071144	0	0	0.631311	-0.0324763	-0.176513	-0.323477	-0.237111	0.645683	0.218147	1.12305	0	0	-0.405155	-0.0989042	-0.597924	0.650886	0.983034	0	0
1.85	-3.09241	0.964833	1.61298	0.578708	-0.395583	0.982072	0.962147	-0.055005	-0.107305	0.0213515	-0.237672	0	0	0.352848	-0.035582	-0.0953742	0.26128	-0.0676173	0	0	0.631972	-0.02656	-0.174879	-0.329326	-0.238897	0.64116	0.214791	1.11038	0	0	-0.40407	-0.100559	-0.589051	0.649656	0.97979	0	0
1.86	-3.09008	0.96555	1.61073	0.576829	-0.409481	0.980581	0.967335	-0.0504409	-0.0995543	0.0622846	-0.22951	0	0	0.346683	-0.0401743	-0.0923939	0.278495	-0.06588	0	0	0.632733	-0.0202175	-0.17058	-0.335854	-0.241012	0.638166	0.212188	1.09563	0	0	-0.403706	-0.103123	-0.577127	0.647149	0.97656	0	0
1.87	-3.08815	0.967044	1.60844	0.574836	-0.423898	0.979312	0.969887	-0.0449754	-0.0917757	0.103037	-0.223875	0	0	0.340688	-0.0445033	-0.0887743	0.29686	-0.0678468	0	0	0.633928	-0.0141485	-0.166323	-0.342577	-0.243204	0.636359	0.209596	1.08227	0	0	-0.404346	-0.104892	-0.567619	0.64436	0.972748	0	0
1.88	-3.0851	0.968624	1.60528	0.572816	-0.438724	0.978284	0.969683	-0.038107	-0.0846585	0.134976	-0.225655	0	0	0.335484	-0.0492927	-0.0829364	0.317334	-0.0717849	0	0	0.636621	-0.00766107	-0.162819	-0.349556	-0.245684	0.635443	0.20663	1.07253	0	0	-0.405482	-0.105269	-0.561623	0.640599	0.969569	0	0
1.89	-3.08082	0.968583	1.60076	0.570764	-0.45368	0.977496	0.96915	-0.030288	-0.0766274	0.154887	-0.241499	0	0	0.333641	-0.0544998	-0.0739648	0.341446	-0.0783321	0	0	0.643	-0.000201668	-0.158232	-0.357739	-0.248611	0.636055	0.203915	1.06196	0	0	-0.406043	-0.10559	-0.555356	0.634097	0.966538	0	0
1.9	-3.07592	0.966789	1.59547	0.568694	-0.468582	0.976995	0.969062	-0.0231187	-0.0702968	0.166285	-0.274861	0	0	0.336609	-0.0594923	-0.0612513	0.370845	-0.0883319	0	0	0.652421	0.00796299	-0.15288	-0.366299	-0.252032	0.639573	0.201727	1.04829	0	0	-0.406331	-0.106517	-0.547031	0.624863	0.965915	0	0
1.91	-3.06956	0.964036	1.58804	0.566487	-0.483345	0.976839	0.969444	-0.0158583	-0.0699687	0.176295	-0.305297	0	0	0.343969	-0.0652416	-0.0466524	0.406309	-0.10075	0	0	0.662862	0.0176055	-0.14774	-0.37413	-0.255355	0.642172	0.199537	1.0345	0	0	-0.405764	-0.106007	-0.541819	0.614309	0.96583	0	0
1.92	-3.06173	0.961536	1.57768	0.564036	-0.498008	0.977084	0.969573	-0.00740315	-0.0760594	0.190377	-0.320117	0	0	0.354297	-0.0723386	-0.0329345	0.448346	-0.114237	0	0	0.67204	0.0288469	-0.143098	-0.379635	-0.258805	0.644207	0.197144	1.02381	0	0	-0.405344	-0.104306	-0.538918	0.603946	0.966848	0	0
